<?xml version="1.0" encoding="UTF-8" standalone="no"?> <svg xmlns:dc="http://purl.org/dc/elements/1.1/" xmlns:cc="http://creativecommons.org/ns#" xmlns:rdf="http://www.w3.org/1999/02/22-rdf-syntax-ns#" xmlns:svg="http://www.w3.org/2000/svg" xmlns="http://www.w3.org/2000/svg" xmlns:sodipodi="http://sodipodi.sourceforge.net/DTD/sodipodi-0.dtd" xmlns:inkscape="http://www.inkscape.org/namespaces/inkscape" id="svg2" xml:space="preserve" width="298.09332" height="137.39999" viewBox="0 0 298.09332 137.39999" sodipodi:docname="SZ_Logo_vert.eps"> <metadata id="metadata8"></metadata> <defs id="defs6"></defs> <g id="g10" inkscape:groupmode="layer" inkscape:label="ink_ext_XXXXXX" transform="matrix(1.3333333,0,0,-1.3333333,0,137.4)"> <g id="g12" transform="scale(0.1)"> <path d="m 223.496,1019.89 c 84.473,0 192.707,-47.503 204.141,-174.218 h -73.028 c -12.324,83.594 -67.757,112.633 -131.113,112.633 -103.828,0 -151.3437,-75.676 -151.3437,-165.426 0,-90.629 47.5157,-166.305 151.3437,-166.305 63.356,0 118.789,29.039 131.113,112.633 h 73.028 C 416.203,612.504 307.969,564.984 223.496,564.984 81.832,564.984 0,666.176 0,792.879 0,918.711 81.832,1019.89 223.496,1019.89" style="fill:#231f20;fill-opacity:1;fill-rule:nonzero;stroke:none" id="path14"></path> <path d="M 1153.26,573.781 H 1081.1 V 949.504 H 910.395 C 909.516,709.289 897.199,573.781 753.77,573.781 v 61.598 c 85.351,0 84.468,127.582 84.468,375.721 H 1153.26 V 573.781" style="fill:#231f20;fill-opacity:1;fill-rule:nonzero;stroke:none" id="path16"></path> <path d="m 1435.67,635.379 c 73.92,0 124.07,8.801 124.07,94.144 0,85.352 -50.15,94.157 -124.07,94.157 h -81.84 V 635.379 Z m 196.22,94.144 c 0,-122.304 -83.59,-155.742 -187.42,-155.742 H 1281.68 V 1011.1 h 72.15 V 885.27 h 90.64 c 103.83,0 187.42,-33.434 187.42,-155.747" style="fill:#231f20;fill-opacity:1;fill-rule:nonzero;stroke:none" id="path18"></path> <path d="m 101.234,179.504 c 0,-92.3907 31.672,-122.3126 117.024,-122.3126 76.551,0 101.191,28.1641 101.191,81.8356 0,50.157 -24.64,72.157 -78.312,72.157 h -58.946 v 58.066 h 58.946 c 53.672,0 69.511,22.883 69.511,63.352 0,38.718 -18.476,65.117 -95.91,65.117 -85.343,0 -104.703,-29.035 -104.703,-87.989 H 39.6406 c 0,91.512 57.1992,145.184 175.0974,145.184 109.992,0 166.309,-50.156 166.309,-114.383 0,-54.562 -33.445,-82.715 -88,-89.758 v -20.234 c 54.555,-7.918 96.797,-36.961 96.797,-99.434 C 389.844,51.0273 328.254,0 218.258,0 100.363,0 30.8398,54.5547 30.8398,179.504 h 70.3942" style="fill:#231f20;fill-opacity:1;fill-rule:nonzero;stroke:none" id="path20"></path> <path d="m 815.02,268.371 c 0,70.391 -46.637,125.832 -133.75,125.832 -86.227,0 -141.665,-55.441 -141.665,-125.832 z M 681.27,454.914 c 123.187,0 204.144,-78.309 204.144,-212.937 V 213.82 H 539.605 c 4.403,-82.715 44.004,-153.9841 152.227,-153.9841 72.156,0 120.555,35.1954 136.387,102.0701 h 72.152 C 883.656,94.1523 830.863,0 691.832,0 535.211,0 469.219,107.348 469.219,233.176 c 0,140.793 87.988,221.738 212.051,221.738" style="fill:#231f20;fill-opacity:1;fill-rule:nonzero;stroke:none" id="path22"></path> <path d="M 988.449,446.117 H 1132.76 L 1235.7,29.0391 h 20.25 l 102.94,417.0779 h 145.19 V 8.80078 h -72.16 V 382.766 l 0.51,42.226 h -9.3 L 1318.42,8.80078 h -144.3 L 1069.4,424.992 h -8.76 l -0.03,-42.226 V 8.80078 H 988.449 V 446.117" style="fill:#231f20;fill-opacity:1;fill-rule:nonzero;stroke:none" id="path24"></path> <path d="m 1991.73,9.28125 h -72.15 V 385.012 H 1748.87 C 1747.98,144.789 1735.68,9.28125 1592.25,9.28125 V 70.8828 c 85.35,0 84.46,127.5782 84.46,375.7112 h 315.02 V 9.28125" style="fill:#231f20;fill-opacity:1;fill-rule:nonzero;stroke:none" id="path26"></path> <path d="m 2209.01,446.633 h -72.46 V 9.28125 h 72.46 V 446.633" style="fill:#231f20;fill-opacity:1;fill-rule:nonzero;stroke:none" id="path28"></path> <path d="M 615.867,1011.62 H 543.402 V 574.266 h 72.465 v 437.354" style="fill:#231f20;fill-opacity:1;fill-rule:nonzero;stroke:none" id="path30"></path> <path d="m 2008.81,802.277 -57.44,-57.441 -57.44,57.441 57.44,57.442 57.44,-57.442" style="fill:#231f20;fill-opacity:1;fill-rule:nonzero;stroke:none" id="path32"></path> <path d="m 2066.04,859.516 -57.44,-57.442 -57.44,57.442 57.44,57.441 57.44,-57.441" style="fill:#231f20;fill-opacity:1;fill-rule:nonzero;stroke:none" id="path34"></path> <path d="m 2066.04,973.059 -57.44,-57.442 -57.44,57.442 57.44,57.441 57.44,-57.441" style="fill:#231f20;fill-opacity:1;fill-rule:nonzero;stroke:none" id="path36"></path> <path d="m 2065.58,745.508 -57.44,-57.445 -57.44,57.445 57.44,57.437 57.44,-57.437" style="fill:#231f20;fill-opacity:1;fill-rule:nonzero;stroke:none" id="path38"></path> <path d="m 2065.58,633.348 -57.44,-57.442 -57.44,57.442 57.44,57.441 57.44,-57.441" style="fill:#231f20;fill-opacity:1;fill-rule:nonzero;stroke:none" id="path40"></path> <path d="m 1838.52,860.879 57.44,-57.445 -57.44,-57.442 -57.44,57.442 57.44,57.445" style="fill:#231f20;fill-opacity:1;fill-rule:nonzero;stroke:none" id="path42"></path> <path d="m 2178.23,860.414 57.44,-57.441 -57.44,-57.442 -57.44,57.442 57.44,57.441" style="fill:#231f20;fill-opacity:1;fill-rule:nonzero;stroke:none" id="path44"></path> <path d="m 2122.82,802.742 -57.44,-57.441 -57.45,57.441 57.45,57.442 57.44,-57.442" style="fill:#231f20;fill-opacity:1;fill-rule:nonzero;stroke:none" id="path46"></path> </g> </g> </svg> 