<?xml version="1.0" encoding="UTF-8" standalone="no"?> <svg xmlns:dc="http://purl.org/dc/elements/1.1/" xmlns:cc="http://creativecommons.org/ns#" xmlns:rdf="http://www.w3.org/1999/02/22-rdf-syntax-ns#" xmlns:svg="http://www.w3.org/2000/svg" xmlns="http://www.w3.org/2000/svg" xmlns:sodipodi="http://sodipodi.sourceforge.net/DTD/sodipodi-0.dtd" xmlns:inkscape="http://www.inkscape.org/namespaces/inkscape" id="svg2" xml:space="preserve" width="437.37332" height="46.226665" viewBox="0 0 437.37332 46.226665" sodipodi:docname="SZ_Logo_hor.eps"> <metadata id="metadata8"></metadata> <defs id="defs6"></defs> <g id="g10" inkscape:groupmode="layer" inkscape:label="ink_ext_XXXXXX" transform="matrix(1.3333333,0,0,-1.3333333,0,46.226667)"> <g id="g12" transform="scale(0.1)"> <path d="m 166.453,338.809 c 62.914,0 143.52,-35.387 152.043,-129.758 h -54.394 c -9.176,62.258 -50.461,83.883 -97.649,83.883 -77.328,0 -112.7147,-56.356 -112.7147,-123.204 0,-67.496 35.3867,-123.8511 112.7147,-123.8511 47.188,0 88.473,21.6211 97.649,83.8751 h 54.394 C 309.973,35.3906 229.367,0 166.453,0 60.9453,0 0,75.3594 0,169.73 0,263.445 60.9453,338.809 166.453,338.809" style="fill:#231f20;fill-opacity:1;fill-rule:nonzero;stroke:none" id="path14"></path> <path d="M 858.91,6.55078 H 805.168 V 286.383 H 678.035 C 677.387,107.469 668.207,6.55078 561.391,6.55078 V 52.4297 c 63.562,0 62.906,95.0193 62.906,279.8203 H 858.91 V 6.55078" style="fill:#231f20;fill-opacity:1;fill-rule:nonzero;stroke:none" id="path16"></path> <path d="m 1069.24,52.4297 c 55.06,0 92.41,6.5547 92.41,70.1173 0,63.566 -37.35,70.125 -92.41,70.125 H 1008.3 V 52.4297 Z m 146.14,70.1173 C 1215.38,31.4531 1153.12,6.55078 1075.8,6.55078 H 954.563 V 332.25 h 53.737 v -93.707 h 67.5 c 77.32,0 139.58,-24.906 139.58,-115.996" style="fill:#231f20;fill-opacity:1;fill-rule:nonzero;stroke:none" id="path18"></path> <path d="m 1710.44,133.691 c 0,-68.8082 23.59,-91.0933 87.15,-91.0933 57.02,0 75.37,20.9648 75.37,60.9453 0,37.355 -18.35,53.742 -58.32,53.742 h -43.9 v 43.246 h 43.9 c 39.97,0 51.77,17.043 51.77,47.184 0,28.836 -13.76,48.496 -71.44,48.496 -63.55,0 -77.97,-21.625 -77.97,-65.531 h -52.44 c 0,68.152 42.61,108.129 130.41,108.129 81.93,0 123.86,-37.356 123.86,-85.196 0,-40.629 -24.9,-61.601 -65.54,-66.847 v -15.067 c 40.64,-5.898 72.1,-27.531 72.1,-74.0545 C 1925.39,38.0078 1879.52,0 1797.59,0 c -87.8,0 -139.58,40.6328 -139.58,133.691 h 52.43" style="fill:#231f20;fill-opacity:1;fill-rule:nonzero;stroke:none" id="path20"></path> <path d="m 2242.04,199.879 c 0,52.426 -34.72,93.711 -99.61,93.711 -64.21,0 -105.5,-41.285 -105.5,-93.711 z m -99.61,138.93 c 91.75,0 152.05,-58.325 152.05,-158.59 v -20.973 h -257.55 c 3.28,-61.6015 32.77,-114.6874 113.37,-114.6874 53.74,0 89.78,26.2227 101.58,76.0274 h 53.74 C 2293.17,70.1172 2253.85,0 2150.3,0 c -116.64,0 -165.79,79.9492 -165.79,173.66 0,104.856 65.52,165.149 157.92,165.149" style="fill:#231f20;fill-opacity:1;fill-rule:nonzero;stroke:none" id="path22"></path> <path d="m 2371.21,332.25 h 107.48 l 76.66,-310.6211 h 15.09 L 2647.1,332.25 h 108.14 V 6.55078 H 2701.5 V 285.074 l 0.38,31.453 h -6.93 L 2616.97,6.55078 H 2509.5 L 2431.51,316.527 h -6.53 l -0.03,-31.453 V 6.55078 h -53.74 V 332.25" style="fill:#231f20;fill-opacity:1;fill-rule:nonzero;stroke:none" id="path24"></path> <path d="m 3118.43,6.91406 h -53.74 V 286.742 H 2937.55 C 2936.9,107.832 2927.73,6.91406 2820.91,6.91406 V 52.793 c 63.57,0 62.9,95.02 62.9,279.82 h 234.62 V 6.91406" style="fill:#231f20;fill-opacity:1;fill-rule:nonzero;stroke:none" id="path26"></path> <path d="m 3280.26,332.641 h -53.98 V 6.91406 h 53.98 V 332.641" style="fill:#231f20;fill-opacity:1;fill-rule:nonzero;stroke:none" id="path28"></path> <path d="M 458.68,332.641 H 404.715 V 6.91406 H 458.68 V 332.641" style="fill:#231f20;fill-opacity:1;fill-rule:nonzero;stroke:none" id="path30"></path> <path d="m 1434.59,176.734 -42.78,-42.781 -42.78,42.781 42.78,42.778 42.78,-42.778" style="fill:#231f20;fill-opacity:1;fill-rule:nonzero;stroke:none" id="path32"></path> <path d="m 1477.22,219.359 -42.78,-42.781 -42.79,42.781 42.79,42.778 42.78,-42.778" style="fill:#231f20;fill-opacity:1;fill-rule:nonzero;stroke:none" id="path34"></path> <path d="m 1477.22,303.926 -42.78,-42.785 -42.79,42.785 42.79,42.777 42.78,-42.777" style="fill:#231f20;fill-opacity:1;fill-rule:nonzero;stroke:none" id="path36"></path> <path d="m 1476.87,134.453 -42.78,-42.785 -42.78,42.785 42.78,42.777 42.78,-42.777" style="fill:#231f20;fill-opacity:1;fill-rule:nonzero;stroke:none" id="path38"></path> <path d="M 1476.87,50.918 1434.09,8.13281 1391.31,50.918 1434.09,93.6992 1476.87,50.918" style="fill:#231f20;fill-opacity:1;fill-rule:nonzero;stroke:none" id="path40"></path> <path d="m 1307.76,220.371 42.78,-42.777 -42.78,-42.781 -42.78,42.781 42.78,42.777" style="fill:#231f20;fill-opacity:1;fill-rule:nonzero;stroke:none" id="path42"></path> <path d="m 1560.77,220.027 42.78,-42.781 -42.78,-42.785 -42.78,42.785 42.78,42.781" style="fill:#231f20;fill-opacity:1;fill-rule:nonzero;stroke:none" id="path44"></path> <path d="m 1519.5,177.074 -42.78,-42.777 -42.78,42.777 42.78,42.785 42.78,-42.785" style="fill:#231f20;fill-opacity:1;fill-rule:nonzero;stroke:none" id="path46"></path> <path d="m 166.453,338.809 c 62.914,0 143.52,-35.387 152.043,-129.758 h -54.394 c -9.176,62.258 -50.461,83.883 -97.649,83.883 -77.328,0 -112.7147,-56.356 -112.7147,-123.204 0,-67.496 35.3867,-123.8511 112.7147,-123.8511 47.188,0 88.473,21.6211 97.649,83.8751 h 54.394 C 309.973,35.3906 229.367,0 166.453,0 60.9453,0 0,75.3594 0,169.73 0,263.445 60.9453,338.809 166.453,338.809" style="fill:#231f20;fill-opacity:1;fill-rule:nonzero;stroke:none" id="path48"></path> <path d="M 858.91,6.55078 H 805.168 V 286.383 H 678.035 C 677.387,107.469 668.207,6.55078 561.391,6.55078 V 52.4297 c 63.562,0 62.906,95.0193 62.906,279.8203 H 858.91 V 6.55078" style="fill:#231f20;fill-opacity:1;fill-rule:nonzero;stroke:none" id="path50"></path> <path d="m 1069.24,52.4297 c 55.06,0 92.41,6.5547 92.41,70.1173 0,63.566 -37.35,70.125 -92.41,70.125 H 1008.3 V 52.4297 Z m 146.14,70.1173 C 1215.38,31.4531 1153.12,6.55078 1075.8,6.55078 H 954.563 V 332.25 h 53.737 v -93.707 h 67.5 c 77.32,0 139.58,-24.906 139.58,-115.996" style="fill:#231f20;fill-opacity:1;fill-rule:nonzero;stroke:none" id="path52"></path> <path d="m 1710.44,133.691 c 0,-68.8082 23.59,-91.0933 87.15,-91.0933 57.02,0 75.37,20.9648 75.37,60.9453 0,37.355 -18.35,53.742 -58.32,53.742 h -43.9 v 43.246 h 43.9 c 39.97,0 51.77,17.043 51.77,47.184 0,28.836 -13.76,48.496 -71.44,48.496 -63.55,0 -77.97,-21.625 -77.97,-65.531 h -52.44 c 0,68.152 42.61,108.129 130.41,108.129 81.93,0 123.86,-37.356 123.86,-85.196 0,-40.629 -24.9,-61.601 -65.54,-66.847 v -15.067 c 40.64,-5.898 72.1,-27.531 72.1,-74.0545 C 1925.39,38.0078 1879.52,0 1797.59,0 c -87.8,0 -139.58,40.6328 -139.58,133.691 h 52.43" style="fill:#231f20;fill-opacity:1;fill-rule:nonzero;stroke:none" id="path54"></path> <path d="m 2242.04,199.879 c 0,52.426 -34.72,93.711 -99.61,93.711 -64.21,0 -105.5,-41.285 -105.5,-93.711 z m -99.61,138.93 c 91.75,0 152.05,-58.325 152.05,-158.59 v -20.973 h -257.55 c 3.28,-61.6015 32.77,-114.6874 113.37,-114.6874 53.74,0 89.78,26.2227 101.58,76.0274 h 53.74 C 2293.17,70.1172 2253.85,0 2150.3,0 c -116.64,0 -165.79,79.9492 -165.79,173.66 0,104.856 65.52,165.149 157.92,165.149" style="fill:#231f20;fill-opacity:1;fill-rule:nonzero;stroke:none" id="path56"></path> <path d="m 2371.21,332.25 h 107.48 l 76.66,-310.6211 h 15.09 L 2647.1,332.25 h 108.14 V 6.55078 H 2701.5 V 285.074 l 0.38,31.453 h -6.93 L 2616.97,6.55078 H 2509.5 L 2431.51,316.527 h -6.53 l -0.03,-31.453 V 6.55078 h -53.74 V 332.25" style="fill:#231f20;fill-opacity:1;fill-rule:nonzero;stroke:none" id="path58"></path> <path d="m 3118.43,6.91406 h -53.74 V 286.742 H 2937.55 C 2936.9,107.832 2927.73,6.91406 2820.91,6.91406 V 52.793 c 63.57,0 62.9,95.02 62.9,279.82 h 234.62 V 6.91406" style="fill:#231f20;fill-opacity:1;fill-rule:nonzero;stroke:none" id="path60"></path> <path d="m 3280.26,332.641 h -53.98 V 6.91406 h 53.98 V 332.641" style="fill:#231f20;fill-opacity:1;fill-rule:nonzero;stroke:none" id="path62"></path> <path d="M 458.68,332.641 H 404.715 V 6.91406 H 458.68 V 332.641" style="fill:#231f20;fill-opacity:1;fill-rule:nonzero;stroke:none" id="path64"></path> <path d="m 1434.59,176.734 -42.78,-42.781 -42.78,42.781 42.78,42.778 42.78,-42.778" style="fill:#231f20;fill-opacity:1;fill-rule:nonzero;stroke:none" id="path66"></path> <path d="m 1477.22,219.359 -42.78,-42.781 -42.79,42.781 42.79,42.778 42.78,-42.778" style="fill:#231f20;fill-opacity:1;fill-rule:nonzero;stroke:none" id="path68"></path> <path d="m 1477.22,303.926 -42.78,-42.785 -42.79,42.785 42.79,42.777 42.78,-42.777" style="fill:#231f20;fill-opacity:1;fill-rule:nonzero;stroke:none" id="path70"></path> <path d="m 1476.87,134.453 -42.78,-42.785 -42.78,42.785 42.78,42.777 42.78,-42.777" style="fill:#231f20;fill-opacity:1;fill-rule:nonzero;stroke:none" id="path72"></path> <path d="M 1476.87,50.918 1434.09,8.13281 1391.31,50.918 1434.09,93.6992 1476.87,50.918" style="fill:#231f20;fill-opacity:1;fill-rule:nonzero;stroke:none" id="path74"></path> <path d="m 1307.76,220.371 42.78,-42.777 -42.78,-42.781 -42.78,42.781 42.78,42.777" style="fill:#231f20;fill-opacity:1;fill-rule:nonzero;stroke:none" id="path76"></path> <path d="m 1560.77,220.027 42.78,-42.781 -42.78,-42.785 -42.78,42.785 42.78,42.781" style="fill:#231f20;fill-opacity:1;fill-rule:nonzero;stroke:none" id="path78"></path> <path d="m 1519.5,177.074 -42.78,-42.777 -42.78,42.777 42.78,42.785 42.78,-42.785" style="fill:#231f20;fill-opacity:1;fill-rule:nonzero;stroke:none" id="path80"></path> </g> </g> </svg> 